#!OML:ASF X:\für Bonn\!DataBase\2005_08_10_Bjorn_Final\c3d\bjorn.ASF
:FULLY-SPECIFIED
:DEGREES
124
root -5.32827 19.2461 -1.18063 693.402 82.271 -30.0489
lowerback -0.0209039 1.17541 -1.92922
upperback 10.2038 1.99057 0.865075
thorax 10.7756 0.89491 2.21519
lowerneck 6.31207 -1.00378 -2.53236
upperneck 15.2553 -0.628646 -1.96113
head 3.88706 -0.298555 -0.207379
rclavicle -4.57205e-015 1.23246e-014
rhumerus -27.6079 -18.7719 -77.712
rradius 36.0474
rwrist 2.52008
rhand -11.1863 15.1164
rfingers 7.12502
rthumb 14.841 -14.3321
lclavicle -4.57205e-015 1.23246e-014
lhumerus -23.1182 -3.42316 57.5286
lradius 45.1135
lwrist -16.5728
lhand -33.7325 -14.9554
lfingers 7.12502
lthumb -6.92132 14.9115
rfemur -11.0787 1.26225 13.6579
rtibia 55.3997
rfoot 5.04246 13.2017
rtoes -19.5712
lfemur -24.407 7.90396 -12.9118
ltibia 33.2791
lfoot -5.06873 -7.06221
ltoes -5.13563
125
root -5.25174 19.2592 -1.20094 692.539 82.4154 -30.6864
lowerback 0.0272556 1.20988 -2.15336
upperback 10.1846 2.06196 0.721913
thorax 10.7203 0.918965 2.19086
lowerneck 6.27062 -1.10724 -2.56608
upperneck 15.4907 -0.786102 -1.6493
head 3.98215 -0.36706 -0.10161
rclavicle 1.51076e-014 1.70955e-014
rhumerus -27.7929 -18.9002 -77.7723
rradius 35.8087
rwrist 2.69602
rhand -11.1903 15.1933
rfingers 7.12502
rthumb 14.8372 -14.2555
lclavicle 1.51076e-014 1.70955e-014
lhumerus -22.7846 -3.27516 57.1727
lradius 45.4288
lwrist -16.2921
lhand -33.9533 -14.8832
lfingers 7.12502
lthumb -7.13453 14.9766
rfemur -11.9914 0.97659 13.5769
rtibia 57.2523
rfoot 5.65135 13.0013
rtoes -19.1927
lfemur -23.8072 7.77975 -12.9657
ltibia 33.0653
lfoot -5.24983 -7.14474
ltoes -5.432
126
root -5.17662 19.271 -1.22134 691.598 82.5655 -31.4006
lowerback 0.0682271 1.23694 -2.37042
upperback 10.1563 2.1216 0.583658
thorax 10.6595 0.937715 2.16675
lowerneck 6.16231 -1.19706 -2.60711
upperneck 15.7983 -0.92169 -1.33097
head 4.11743 -0.424856 0.00775851
rclavicle 1.86858e-014 1.07344e-014
rhumerus -28.0182 -19.021 -77.8388
rradius 35.6168
rwrist 2.95107
rhand -11.2176 15.289
rfingers 7.12502
rthumb 14.8109 -14.1618
lclavicle 1.86858e-014 1.07344e-014
lhumerus -22.4574 -3.14526 56.837
lradius 45.7303
lwrist -15.9089
lhand -34.1143 -14.8531
lfingers 7.12502
lthumb -7.28988 15.0013
rfemur -12.9195 0.623266 13.4817
rtibia 59.1074
rfoot 6.18937 12.787
rtoes -18.5631
lfemur -23.2296 7.61828 -13.0146
ltibia 32.8864
lfoot -5.43957 -7.18965
ltoes -5.54285
127
root -5.1025 19.2797 -1.24061 690.691 82.7039 -32.0911
lowerback 0.074543 1.2704 -2.56294
upperback 10.1322 2.19222 0.41272
thorax 10.626 0.965372 2.09633
lowerneck 6.08578 -1.29317 -2.53565
upperneck 16.0469 -1.06234 -1.07102
head 4.22502 -0.480149 0.0788192
rclavicle -1.47101e-014 -1.86858e-014
rhumerus -28.2648 -19.1382 -77.9716
rradius 35.5045
rwrist 3.14425
rhand -11.2083 15.345
rfingers 7.12502
rthumb 14.8199 -14.105
lclavicle -1.47101e-014 -1.86858e-014
lhumerus -22.0954 -2.98704 56.4522
lradius 46.0233
lwrist -15.6317
lhand -34.2107 -14.8317
lfingers 7.12502
lthumb -7.38291 15.0195
rfemur -13.8929 0.237822 13.3774
rtibia 60.9706
rfoot 6.66432 12.655
rtoes -17.9842
lfemur -22.6837 7.4688 -13.0628
ltibia 32.7468
lfoot -5.63649 -7.2257
ltoes -5.57603
128
root -5.0291 19.2872 -1.25895 689.724 82.8435 -32.8107
lowerback 0.122185 1.30422 -2.73296
upperback 10.1053 2.26259 0.224928
thorax 10.566 0.996841 1.99383
lowerneck 6.06808 -1.3915 -2.40048
upperneck 16.2335 -1.2041 -0.860869
head 4.29845 -0.533151 0.122751
rclavicle -1.68967e-014 7.95139e-016
rhumerus -28.5474 -19.2813 -78.1251
rradius 35.4024
rwrist 3.34366
rhand -11.2064 15.38
rfingers 7.12502
rthumb 14.8217 -14.0699
lclavicle -1.68967e-014 7.95139e-016
lhumerus -21.7093 -2.86747 56.0575
lradius 46.2789
lwrist -15.3997
lhand -34.3605 -14.8028
lfingers 7.12502
lthumb -7.52752 15.0433
rfemur -14.8487 -0.214298 13.2594
rtibia 62.8227
rfoot 7.1076 12.6283
rtoes -17.3194
lfemur -22.1158 7.29132 -13.1022
ltibia 32.6266
lfoot -5.83601 -7.24908
ltoes -5.65139
129
root -4.95823 19.2919 -1.27719 688.728 82.9793 -33.5584
lowerback 0.173532 1.33601 -2.90826
upperback 10.0805 2.32914 0.0523404
thorax 10.5057 1.02534 1.91018
lowerneck 6.00622 -1.48253 -2.31428
upperneck 16.487 -1.3356 -0.630252
head 4.40636 -0.582336 0.182009
rclavicle 1.41137e-014 -1.35174e-014
rhumerus -28.8186 -19.3609 -78.2774
rradius 35.3307
rwrist 3.52273
rhand -11.2015 15.38
rfingers 7.12502
rthumb 14.8263 -14.0696
lclavicle 1.41137e-014 -1.35174e-014
lhumerus -21.3257 -2.65592 55.7118
lradius 46.5011
lwrist -15.2376
lhand -34.4741 -14.8588
lfingers 7.12502
lthumb -7.63721 14.9833
rfemur -15.8151 -0.706073 13.1414
rtibia 64.6623
rfoot 7.43117 12.7739
rtoes -16.8355
lfemur -21.5667 7.14369 -13.1479
ltibia 32.5259
lfoot -6.07628 -7.27625
ltoes -5.80114
130
root -4.88672 19.2985 -1.29386 687.587 83.0927 -34.4391
lowerback 0.208795 1.38418 -3.02423
upperback 10.0652 2.41862 -0.150629
thorax 10.4681 1.07188 1.76392
lowerneck 5.96672 -1.58786 -2.14704
upperneck 16.7266 -1.49026 -0.373741
head 4.50515 -0.636234 0.235795
rclavicle 3.57812e-015 1.03368e-014
rhumerus -29.0915 -19.5327 -78.4548
rradius 35.2314
rwrist 3.73572
rhand -11.1977 15.4473
rfingers 7.12502
rthumb 14.8301 -14.002
lclavicle 3.57812e-015 1.03368e-014
lhumerus -20.9018 -2.5127 55.3389
lradius 46.759
lwrist -15.0538
lhand -34.6435 -14.8306
lfingers 7.12502
lthumb -7.80067 15.0055
rfemur -16.782 -1.21309 13.051
rtibia 66.4777
rfoot 7.67732 13.0513
rtoes -16.3708
lfemur -20.9899 6.9931 -13.1577
ltibia 32.4054
lfoot -6.26363 -7.29782
ltoes -5.67597
131
root -4.81723 19.3048 -1.30902 686.532 83.2267 -35.2441
lowerback 0.245295 1.43286 -3.17332
upperback 10.054 2.51223 -0.363267
thorax 10.4344 1.1183 1.62623
lowerneck 5.89314 -1.69005 -1.91679
upperneck 16.9791 -1.637 -0.143887
head 4.61474 -0.682778 0.269712
rclavicle -2.78299e-015 0
rhumerus -29.3795 -19.7356 -78.6577
rradius 35.1865
rwrist 3.93481
rhand -11.1513 15.5096
rfingers 7.12502
rthumb 14.8747 -13.9364
lclavicle -2.78299e-015 0
lhumerus -20.4342 -2.31596 54.9656
lradius 46.967
lwrist -14.9627
lhand -34.7757 -14.868
lfingers 7.12502
lthumb -7.92827 14.9633
rfemur -17.7807 -1.76726 12.9429
rtibia 68.2795
rfoot 7.80846 13.4407
rtoes -16.1107
lfemur -20.4244 6.82496 -13.1962
ltibia 32.2701
lfoot -6.47597 -7.29419
ltoes -5.7556
